<svg width="830" height="218" viewBox="0 0 830 218" fill="none" xmlns="http://www.w3.org/2000/svg">
<g filter="url(#filter0_d_0_1)">
<path d="M106.994 71H93.7841C93.0028 67.2003 91.6357 63.8622 89.6825 60.9858C87.7649 58.1094 85.4212 55.6946 82.6513 53.7415C79.9169 51.7528 76.8807 50.2614 73.5426 49.267C70.2045 48.2727 66.7244 47.7756 63.1023 47.7756C56.4972 47.7756 50.5135 49.4446 45.1513 52.7827C39.8246 56.1207 35.581 61.0391 32.4205 67.5376C29.2955 74.0362 27.733 82.0085 27.733 91.4545C27.733 100.901 29.2955 108.873 32.4205 115.371C35.581 121.87 39.8246 126.788 45.1513 130.126C50.5135 133.464 56.4972 135.134 63.1023 135.134C66.7244 135.134 70.2045 134.636 73.5426 133.642C76.8807 132.648 79.9169 131.174 82.6513 129.221C85.4212 127.232 87.7649 124.8 89.6825 121.923C91.6357 119.011 93.0028 115.673 93.7841 111.909H106.994C106 117.484 104.189 122.474 101.561 126.877C98.9332 131.281 95.6662 135.027 91.7599 138.116C87.8537 141.17 83.468 143.496 78.603 145.094C73.7734 146.692 68.6065 147.491 63.1023 147.491C53.7983 147.491 45.5241 145.219 38.2798 140.673C31.0355 136.128 25.3359 129.665 21.1811 121.284C17.0263 112.903 14.9489 102.96 14.9489 91.4545C14.9489 79.9489 17.0263 70.0057 21.1811 61.625C25.3359 53.2443 31.0355 46.7812 38.2798 42.2358C45.5241 37.6903 53.7983 35.4176 63.1023 35.4176C68.6065 35.4176 73.7734 36.2166 78.603 37.8146C83.468 39.4126 87.8537 41.7564 91.7599 44.8459C95.6662 47.8999 98.9332 51.6285 101.561 56.032C104.189 60.3999 106 65.3892 106.994 71Z" fill="#FF7A00"/>
</g>
<g filter="url(#filter1_d_0_1)">
<path d="M37.0653 184V84.3636H70.7315C78.5156 84.3636 84.9051 85.6934 89.8999 88.353C94.8947 90.9801 98.5921 94.5965 100.992 99.2021C103.392 103.808 104.592 109.046 104.592 114.916C104.592 120.787 103.392 125.992 100.992 130.533C98.5921 135.074 94.9109 138.641 89.9485 141.236C84.9862 143.798 78.6454 145.08 70.9261 145.08H43.6818V134.182H70.5369C75.8561 134.182 80.1373 133.403 83.3807 131.847C86.6565 130.29 89.0241 128.084 90.4837 125.23C91.9756 122.344 92.7216 118.906 92.7216 114.916C92.7216 110.927 91.9756 107.44 90.4837 104.456C88.9917 101.472 86.6078 99.1696 83.332 97.5479C80.0562 95.8938 75.7263 95.0668 70.3423 95.0668H49.1307V184H37.0653ZM83.9645 139.241L108.484 184H94.473L70.3423 139.241H83.9645Z" fill="#00088C"/>
</g>
<g filter="url(#filter2_d_0_1)">
<path d="M154.819 87.2773H144.708C144.524 85.9693 144.147 84.8075 143.577 83.7919C143.008 82.7609 142.277 81.8838 141.385 81.1605C140.492 80.4373 139.461 79.8833 138.292 79.4986C137.137 79.1139 135.883 78.9215 134.529 78.9215C132.082 78.9215 129.951 79.5294 128.135 80.745C126.319 81.9453 124.911 83.6996 123.911 86.0078C122.911 88.3007 122.411 91.0859 122.411 94.3636C122.411 97.7337 122.911 100.565 123.911 102.858C124.927 105.151 126.343 106.882 128.158 108.051C129.974 109.221 132.075 109.806 134.46 109.806C135.799 109.806 137.037 109.629 138.176 109.275C139.33 108.921 140.354 108.405 141.246 107.728C142.139 107.036 142.877 106.197 143.462 105.212C144.062 104.228 144.478 103.104 144.708 101.842L154.819 101.888C154.557 104.058 153.903 106.151 152.857 108.167C151.826 110.167 150.433 111.96 148.679 113.545C146.94 115.115 144.862 116.361 142.446 117.284C140.046 118.192 137.33 118.646 134.298 118.646C130.082 118.646 126.312 117.692 122.988 115.784C119.679 113.876 117.063 111.114 115.14 107.498C113.232 103.881 112.278 99.5033 112.278 94.3636C112.278 89.2086 113.247 84.8229 115.186 81.2067C117.125 77.5904 119.756 74.8359 123.08 72.9432C126.404 71.035 130.143 70.081 134.298 70.081C137.037 70.081 139.576 70.4657 141.915 71.2351C144.27 72.0045 146.355 73.1278 148.171 74.6051C149.987 76.067 151.464 77.8597 152.603 79.9833C153.757 82.1069 154.495 84.5382 154.819 87.2773ZM161.986 118V70.7273H171.98V90.2319H192.27V70.7273H202.241V118H192.27V98.4723H171.98V118H161.986ZM239.681 70.7273H249.676V101.427C249.676 104.874 248.852 107.89 247.206 110.475C245.575 113.06 243.289 115.076 240.35 116.523C237.411 117.954 233.987 118.669 230.079 118.669C226.155 118.669 222.723 117.954 219.784 116.523C216.845 115.076 214.56 113.06 212.928 110.475C211.297 107.89 210.482 104.874 210.482 101.427V70.7273H220.476V100.573C220.476 102.373 220.869 103.974 221.654 105.374C222.454 106.774 223.577 107.875 225.024 108.675C226.47 109.475 228.155 109.875 230.079 109.875C232.018 109.875 233.703 109.475 235.134 108.675C236.58 107.875 237.696 106.774 238.481 105.374C239.281 103.974 239.681 102.373 239.681 100.573V70.7273ZM289.245 86.0078C288.921 84.8845 288.467 83.8919 287.883 83.0302C287.298 82.1531 286.582 81.4144 285.736 80.8143C284.905 80.1987 283.951 79.7294 282.874 79.4062C281.812 79.0831 280.635 78.9215 279.342 78.9215C276.926 78.9215 274.803 79.5217 272.972 80.7219C271.156 81.9222 269.74 83.6688 268.724 85.9616C267.709 88.2391 267.201 91.0244 267.201 94.3175C267.201 97.6106 267.701 100.411 268.701 102.719C269.701 105.028 271.117 106.79 272.948 108.005C274.78 109.206 276.942 109.806 279.435 109.806C281.697 109.806 283.628 109.406 285.228 108.605C286.844 107.79 288.075 106.643 288.921 105.166C289.783 103.689 290.214 101.942 290.214 99.9265L292.245 100.227H280.058V92.7017H299.839V98.657C299.839 102.812 298.962 106.382 297.208 109.367C295.454 112.337 293.038 114.63 289.96 116.246C286.882 117.846 283.359 118.646 279.388 118.646C274.957 118.646 271.063 117.669 267.709 115.715C264.354 113.745 261.738 110.952 259.861 107.336C257.999 103.704 257.068 99.3956 257.068 94.4098C257.068 90.5781 257.622 87.1619 258.73 84.1612C259.853 81.1451 261.423 78.5907 263.438 76.4979C265.454 74.4051 267.801 72.8124 270.479 71.7198C273.156 70.6272 276.057 70.081 279.181 70.081C281.858 70.081 284.351 70.4734 286.659 71.2582C288.968 72.0276 291.014 73.1201 292.799 74.5359C294.6 75.9516 296.069 77.6366 297.208 79.5909C298.347 81.5298 299.078 83.6688 299.401 86.0078H289.245ZM307.347 118V70.7273H317.342V90.2319H337.631V70.7273H347.603V118H337.631V98.4723H317.342V118H307.347ZM354.043 78.9677V70.7273H392.867V78.9677H378.395V118H368.515V78.9677H354.043ZM401.633 118H390.922L407.242 70.7273H420.122L436.418 118H425.708L413.866 81.5298H413.497L401.633 118ZM400.963 99.4187H426.262V107.221H400.963V99.4187ZM452.102 70.7273V118H442.108V70.7273H452.102ZM482.231 90.4627V98.2646H460.672V90.4627H482.231Z" fill="#FF7A00"/>
<path d="M512.699 90.4627V98.2646H491.14V90.4627H512.699ZM521.263 118V70.7273H539.914C543.484 70.7273 546.53 71.3659 549.054 72.6431C551.593 73.9049 553.524 75.6977 554.848 78.0213C556.187 80.3295 556.856 83.0456 556.856 86.1694C556.856 89.3086 556.179 92.0092 554.825 94.2713C553.471 96.518 551.509 98.2415 548.939 99.4418C546.384 100.642 543.291 101.242 539.66 101.242H527.172V93.2095H538.044C539.952 93.2095 541.537 92.9479 542.799 92.4247C544.061 91.9015 544.999 91.1167 545.615 90.0703C546.246 89.0239 546.561 87.7236 546.561 86.1694C546.561 84.5998 546.246 83.2764 545.615 82.1992C544.999 81.122 544.053 80.3065 542.776 79.7525C541.514 79.1831 539.921 78.8984 537.998 78.8984H531.258V118H521.263ZM546.792 96.4872L558.541 118H547.508L536.013 96.4872H546.792ZM572.067 118H561.357L577.676 70.7273H590.556L606.852 118H596.142L584.301 81.5298H583.932L572.067 118ZM571.398 99.4187H596.696V107.221H571.398V99.4187ZM652.03 87.2773H641.92C641.736 85.9693 641.359 84.8075 640.789 83.7919C640.22 82.7609 639.489 81.8838 638.597 81.1605C637.704 80.4373 636.673 79.8833 635.503 79.4986C634.349 79.1139 633.095 78.9215 631.741 78.9215C629.294 78.9215 627.163 79.5294 625.347 80.745C623.531 81.9453 622.123 83.6996 621.123 86.0078C620.123 88.3007 619.623 91.0859 619.623 94.3636C619.623 97.7337 620.123 100.565 621.123 102.858C622.139 105.151 623.554 106.882 625.37 108.051C627.186 109.221 629.287 109.806 631.672 109.806C633.011 109.806 634.249 109.629 635.388 109.275C636.542 108.921 637.565 108.405 638.458 107.728C639.351 107.036 640.089 106.197 640.674 105.212C641.274 104.228 641.69 103.104 641.92 101.842L652.03 101.888C651.769 104.058 651.115 106.151 650.068 108.167C649.037 110.167 647.645 111.96 645.891 113.545C644.152 115.115 642.074 116.361 639.658 117.284C637.258 118.192 634.542 118.646 631.51 118.646C627.294 118.646 623.524 117.692 620.2 115.784C616.891 113.876 614.275 111.114 612.352 107.498C610.444 103.881 609.49 99.5033 609.49 94.3636C609.49 89.2086 610.459 84.8229 612.398 81.2067C614.337 77.5904 616.968 74.8359 620.292 72.9432C623.616 71.035 627.355 70.081 631.51 70.081C634.249 70.081 636.788 70.4657 639.127 71.2351C641.482 72.0045 643.567 73.1278 645.383 74.6051C647.199 76.067 648.676 77.8597 649.815 79.9833C650.969 82.1069 651.707 84.5382 652.03 87.2773ZM659.198 118V70.7273H669.192V91.5707H669.815L686.827 70.7273H698.807L681.264 91.8938L699.015 118H687.058L674.109 98.5646L669.192 104.566V118H659.198ZM714.007 70.7273V118H704.012V70.7273H714.007ZM761.77 70.7273V118H753.137L732.571 88.2468H732.224V118H722.23V70.7273H731.001L751.406 100.457H751.821V70.7273H761.77ZM801.373 86.0078C801.05 84.8845 800.596 83.8919 800.012 83.0302C799.427 82.1531 798.711 81.4144 797.865 80.8143C797.034 80.1987 796.08 79.7294 795.003 79.4062C793.941 79.0831 792.764 78.9215 791.471 78.9215C789.055 78.9215 786.932 79.5217 785.1 80.7219C783.285 81.9222 781.869 83.6688 780.853 85.9616C779.838 88.2391 779.33 91.0244 779.33 94.3175C779.33 97.6106 779.83 100.411 780.83 102.719C781.83 105.028 783.246 106.79 785.077 108.005C786.909 109.206 789.071 109.806 791.563 109.806C793.826 109.806 795.757 109.406 797.357 108.605C798.973 107.79 800.204 106.643 801.05 105.166C801.912 103.689 802.343 101.942 802.343 99.9265L804.374 100.227H792.187V92.7017H811.968V98.657C811.968 102.812 811.091 106.382 809.337 109.367C807.583 112.337 805.167 114.63 802.089 116.246C799.011 117.846 795.487 118.646 791.517 118.646C787.085 118.646 783.192 117.669 779.838 115.715C776.483 113.745 773.867 110.952 771.99 107.336C770.128 103.704 769.197 99.3956 769.197 94.4098C769.197 90.5781 769.751 87.1619 770.859 84.1612C771.982 81.1451 773.552 78.5907 775.567 76.4979C777.583 74.4051 779.93 72.8124 782.608 71.7198C785.285 70.6272 788.186 70.081 791.31 70.081C793.987 70.081 796.48 70.4734 798.788 71.2582C801.097 72.0276 803.143 73.1201 804.928 74.5359C806.729 75.9516 808.198 77.6366 809.337 79.5909C810.476 81.5298 811.207 83.6688 811.53 86.0078H801.373Z" fill="#00068C"/>
</g>
<g filter="url(#filter3_d_0_1)">
<path d="M369.109 173V125.727H379.103V145.232H399.393V125.727H409.364V173H399.393V153.472H379.103V173H369.109ZM461.046 149.364C461.046 154.519 460.069 158.904 458.114 162.521C456.175 166.137 453.529 168.899 450.174 170.807C446.835 172.7 443.08 173.646 438.91 173.646C434.709 173.646 430.939 172.692 427.599 170.784C424.26 168.876 421.621 166.114 419.682 162.498C417.743 158.881 416.774 154.503 416.774 149.364C416.774 144.209 417.743 139.823 419.682 136.207C421.621 132.59 424.26 129.836 427.599 127.943C430.939 126.035 434.709 125.081 438.91 125.081C443.08 125.081 446.835 126.035 450.174 127.943C453.529 129.836 456.175 132.59 458.114 136.207C460.069 139.823 461.046 144.209 461.046 149.364ZM450.913 149.364C450.913 146.024 450.413 143.208 449.412 140.915C448.427 138.623 447.035 136.884 445.234 135.699C443.434 134.514 441.326 133.922 438.91 133.922C436.494 133.922 434.386 134.514 432.585 135.699C430.785 136.884 429.384 138.623 428.384 140.915C427.399 143.208 426.907 146.024 426.907 149.364C426.907 152.703 427.399 155.519 428.384 157.812C429.384 160.105 430.785 161.844 432.585 163.028C434.386 164.213 436.494 164.806 438.91 164.806C441.326 164.806 443.434 164.213 445.234 163.028C447.035 161.844 448.427 160.105 449.412 157.812C450.413 155.519 450.913 152.703 450.913 149.364Z" fill="#FF7A00"/>
<path d="M497.649 125.727H507.643V156.427C507.643 159.874 506.82 162.89 505.174 165.475C503.542 168.06 501.257 170.076 498.318 171.523C495.379 172.954 491.955 173.669 488.046 173.669C484.122 173.669 480.691 172.954 477.752 171.523C474.813 170.076 472.527 168.06 470.896 165.475C469.265 162.89 468.449 159.874 468.449 156.427V125.727H478.444V155.573C478.444 157.373 478.837 158.974 479.621 160.374C480.422 161.774 481.545 162.875 482.991 163.675C484.438 164.475 486.123 164.875 488.046 164.875C489.985 164.875 491.67 164.475 493.101 163.675C494.548 162.875 495.664 161.774 496.448 160.374C497.249 158.974 497.649 157.373 497.649 155.573V125.727Z" fill="url(#paint0_linear_0_1)"/>
<path d="M541.511 139.323C541.326 137.461 540.534 136.014 539.134 134.983C537.733 133.952 535.833 133.437 533.432 133.437C531.801 133.437 530.424 133.668 529.3 134.129C528.177 134.576 527.315 135.199 526.715 135.999C526.13 136.799 525.838 137.707 525.838 138.723C525.807 139.569 525.984 140.308 526.369 140.939C526.769 141.569 527.315 142.116 528.008 142.577C528.7 143.024 529.5 143.416 530.408 143.755C531.316 144.078 532.286 144.355 533.317 144.586L537.564 145.601C539.626 146.063 541.519 146.678 543.242 147.448C544.966 148.217 546.458 149.164 547.72 150.287C548.982 151.41 549.959 152.734 550.652 154.257C551.359 155.781 551.721 157.527 551.737 159.497C551.721 162.39 550.982 164.898 549.521 167.022C548.074 169.13 545.981 170.769 543.242 171.938C540.518 173.092 537.233 173.669 533.386 173.669C529.57 173.669 526.246 173.085 523.414 171.915C520.598 170.746 518.398 169.014 516.813 166.722C515.243 164.413 514.42 161.559 514.343 158.158H524.015C524.122 159.743 524.576 161.066 525.376 162.128C526.192 163.175 527.277 163.967 528.631 164.506C530.001 165.029 531.547 165.29 533.271 165.29C534.963 165.29 536.433 165.044 537.679 164.552C538.941 164.059 539.918 163.375 540.611 162.498C541.303 161.62 541.65 160.612 541.65 159.474C541.65 158.412 541.334 157.519 540.703 156.796C540.088 156.073 539.18 155.457 537.979 154.95C536.795 154.442 535.34 153.98 533.617 153.565L528.469 152.272C524.484 151.303 521.337 149.787 519.029 147.725C516.721 145.663 515.574 142.885 515.589 139.392C515.574 136.53 516.336 134.029 517.875 131.89C519.429 129.751 521.56 128.082 524.268 126.881C526.977 125.681 530.054 125.081 533.501 125.081C537.01 125.081 540.072 125.681 542.688 126.881C545.32 128.082 547.366 129.751 548.828 131.89C550.29 134.029 551.044 136.507 551.09 139.323H541.511ZM558.459 173V125.727H590.313V133.968H568.454V145.232H588.674V153.472H568.454V164.76H590.405V173H558.459Z" fill="#00088C"/>
</g>
<defs>
<filter id="filter0_d_0_1" x="10.9489" y="35.4176" width="100.045" height="120.074" filterUnits="userSpaceOnUse" color-interpolation-filters="sRGB">
<feFlood flood-opacity="0" result="BackgroundImageFix"/>
<feColorMatrix in="SourceAlpha" type="matrix" values="0 0 0 0 0 0 0 0 0 0 0 0 0 0 0 0 0 0 127 0" result="hardAlpha"/>
<feOffset dy="4"/>
<feGaussianBlur stdDeviation="2"/>
<feComposite in2="hardAlpha" operator="out"/>
<feColorMatrix type="matrix" values="0 0 0 0 0 0 0 0 0 0 0 0 0 0 0 0 0 0 0.25 0"/>
<feBlend mode="normal" in2="BackgroundImageFix" result="effect1_dropShadow_0_1"/>
<feBlend mode="normal" in="SourceGraphic" in2="effect1_dropShadow_0_1" result="shape"/>
</filter>
<filter id="filter1_d_0_1" x="33.0653" y="84.3636" width="79.4191" height="107.636" filterUnits="userSpaceOnUse" color-interpolation-filters="sRGB">
<feFlood flood-opacity="0" result="BackgroundImageFix"/>
<feColorMatrix in="SourceAlpha" type="matrix" values="0 0 0 0 0 0 0 0 0 0 0 0 0 0 0 0 0 0 127 0" result="hardAlpha"/>
<feOffset dy="4"/>
<feGaussianBlur stdDeviation="2"/>
<feComposite in2="hardAlpha" operator="out"/>
<feColorMatrix type="matrix" values="0 0 0 0 0 0 0 0 0 0 0 0 0 0 0 0 0 0 0.25 0"/>
<feBlend mode="normal" in2="BackgroundImageFix" result="effect1_dropShadow_0_1"/>
<feBlend mode="normal" in="SourceGraphic" in2="effect1_dropShadow_0_1" result="shape"/>
</filter>
<filter id="filter2_d_0_1" x="108.278" y="70.081" width="707.691" height="56.5884" filterUnits="userSpaceOnUse" color-interpolation-filters="sRGB">
<feFlood flood-opacity="0" result="BackgroundImageFix"/>
<feColorMatrix in="SourceAlpha" type="matrix" values="0 0 0 0 0 0 0 0 0 0 0 0 0 0 0 0 0 0 127 0" result="hardAlpha"/>
<feOffset dy="4"/>
<feGaussianBlur stdDeviation="2"/>
<feComposite in2="hardAlpha" operator="out"/>
<feColorMatrix type="matrix" values="0 0 0 0 0 0 0 0 0 0 0 0 0 0 0 0 0 0 0.25 0"/>
<feBlend mode="normal" in2="BackgroundImageFix" result="effect1_dropShadow_0_1"/>
<feBlend mode="normal" in="SourceGraphic" in2="effect1_dropShadow_0_1" result="shape"/>
</filter>
<filter id="filter3_d_0_1" x="365.109" y="125.081" width="229.297" height="56.5884" filterUnits="userSpaceOnUse" color-interpolation-filters="sRGB">
<feFlood flood-opacity="0" result="BackgroundImageFix"/>
<feColorMatrix in="SourceAlpha" type="matrix" values="0 0 0 0 0 0 0 0 0 0 0 0 0 0 0 0 0 0 127 0" result="hardAlpha"/>
<feOffset dy="4"/>
<feGaussianBlur stdDeviation="2"/>
<feComposite in2="hardAlpha" operator="out"/>
<feColorMatrix type="matrix" values="0 0 0 0 0 0 0 0 0 0 0 0 0 0 0 0 0 0 0.25 0"/>
<feBlend mode="normal" in2="BackgroundImageFix" result="effect1_dropShadow_0_1"/>
<feBlend mode="normal" in="SourceGraphic" in2="effect1_dropShadow_0_1" result="shape"/>
</filter>
<linearGradient id="paint0_linear_0_1" x1="509.5" y1="189" x2="477.088" y2="190.692" gradientUnits="userSpaceOnUse">
<stop offset="0.463542" stop-color="#00088C"/>
<stop offset="1" stop-color="#FF7A00"/>
</linearGradient>
</defs>
</svg>
